<svg xmlns="http://www.w3.org/2000/svg" width="1600" height="1000" viewBox="0 0 1600 1000">
  <rect width="1600" height="1000" fill="#f7f7f8"/>
  <rect x="0" y="0" width="1600" height="72" fill="#ffffff"/>
  <text x="64" y="46" font-family="Inter, Arial, sans-serif" font-size="22" font-weight="700" fill="#202123">ChatGPT Skills</text>
  <rect x="1240" y="20" width="168" height="36" rx="18" fill="#111111"/>
  <text x="1274" y="44" font-family="Inter, Arial, sans-serif" font-size="16" font-weight="700" fill="#ffffff">+ New skill</text>

  <rect x="96" y="136" width="240" height="44" rx="22" fill="#ffffff" stroke="#e5e7eb"/>
  <text x="136" y="164" font-family="Inter, Arial, sans-serif" font-size="16" fill="#333333">Installed</text>
  <rect x="360" y="136" width="260" height="44" rx="22" fill="#f1f3f5"/>
  <text x="400" y="164" font-family="Inter, Arial, sans-serif" font-size="16" fill="#6b7280">Biolytics AI</text>

  <rect x="112" y="240" width="470" height="88" rx="14" fill="#ffffff" stroke="#e5e7eb"/>
  <circle cx="154" cy="284" r="20" fill="#ffdb7d"/>
  <rect x="143" y="273" width="22" height="22" rx="5" fill="#7c3aed"/>
  <text x="192" y="276" font-family="Inter, Arial, sans-serif" font-size="18" font-weight="700" fill="#202123">skill-creator</text>
  <text x="192" y="304" font-family="Inter, Arial, sans-serif" font-size="14" fill="#6b7280">Guide for creating and updating skills...</text>

  <rect x="500" y="218" width="600" height="520" rx="18" fill="#ffffff" stroke="#d8dee4"/>
  <text x="534" y="270" font-family="Inter, Arial, sans-serif" font-size="28" font-weight="700" fill="#111827">Upload a skill</text>
  <text x="1050" y="270" font-family="Inter, Arial, sans-serif" font-size="30" fill="#111827">x</text>

  <rect x="540" y="316" width="520" height="210" rx="18" fill="#ffffff" stroke="#d8dee4" stroke-dasharray="8 8"/>
  <path d="M768 385 h64 a42 42 0 0 1 0 84 h-64 a42 42 0 0 1 0-84z" fill="#f3f4f6"/>
  <path d="M801 400 v54 M774 427 h54" stroke="#7c3aed" stroke-width="10" stroke-linecap="round"/>
  <text x="618" y="576" font-family="Inter, Arial, sans-serif" font-size="20" fill="#374151">Drag and drop a .zip/.skill file or SKILL.md to upload</text>
  <text x="540" y="638" font-family="Inter, Arial, sans-serif" font-size="17" fill="#6b7280">Upload the latest rhetoric-engine.skill release asset.</text>

  <rect x="540" y="676" width="520" height="42" rx="8" fill="#f6f7f9"/>
  <text x="562" y="703" font-family="Inter, Arial, sans-serif" font-size="16" fill="#374151">rhetoric-engine.skill</text>
</svg>
