<svg xmlns="http://www.w3.org/2000/svg" width="1600" height="1000" viewBox="0 0 1600 1000">
  <rect width="1600" height="1000" fill="#fbfaf8"/>
  <rect x="0" y="0" width="1600" height="72" fill="#ffffff"/>
  <text x="64" y="46" font-family="Inter, Arial, sans-serif" font-size="22" font-weight="700" fill="#2b2118">Claude Skills</text>

  <rect x="96" y="120" width="320" height="760" rx="16" fill="#ffffff" stroke="#e5dfd8"/>
  <text x="132" y="172" font-family="Inter, Arial, sans-serif" font-size="24" font-weight="700" fill="#2b2118">Customize</text>
  <rect x="124" y="238" width="264" height="48" rx="12" fill="#f4eee8"/>
  <text x="154" y="268" font-family="Inter, Arial, sans-serif" font-size="17" font-weight="700" fill="#2b2118">Skills</text>
  <text x="154" y="332" font-family="Inter, Arial, sans-serif" font-size="17" fill="#6b625a">Profile</text>
  <text x="154" y="384" font-family="Inter, Arial, sans-serif" font-size="17" fill="#6b625a">Preferences</text>

  <rect x="480" y="120" width="820" height="760" rx="18" fill="#ffffff" stroke="#e5dfd8"/>
  <text x="532" y="180" font-family="Inter, Arial, sans-serif" font-size="34" font-weight="700" fill="#2b2118">Skills</text>
  <text x="532" y="220" font-family="Inter, Arial, sans-serif" font-size="18" fill="#6b625a">Upload custom skills to extend Claude for reusable tasks.</text>

  <rect x="532" y="288" width="716" height="370" rx="18" fill="#fffdfb" stroke="#d8d0c8" stroke-dasharray="8 8"/>
  <path d="M846 388 h88 a54 54 0 0 1 0 108 h-88 a54 54 0 0 1 0-108z" fill="#f4eee8"/>
  <path d="M890 406 v68 M856 440 h68" stroke="#d97706" stroke-width="12" stroke-linecap="round"/>
  <text x="640" y="560" font-family="Inter, Arial, sans-serif" font-size="24" font-weight="700" fill="#2b2118">Upload a custom skill</text>
  <text x="640" y="598" font-family="Inter, Arial, sans-serif" font-size="18" fill="#6b625a">Choose the latest rhetoric-engine-claude.zip release asset.</text>

  <rect x="648" y="700" width="486" height="52" rx="26" fill="#2b2118"/>
  <text x="805" y="733" font-family="Inter, Arial, sans-serif" font-size="18" font-weight="700" fill="#ffffff">Upload skill zip</text>
</svg>
